<svg xmlns="http://www.w3.org/2000/svg" xmlns:xlink="http://www.w3.org/1999/xlink" width="500" zoomAndPan="magnify" viewBox="0 0 375 149.999998" height="200" preserveAspectRatio="xMidYMid meet" version="1.0"><defs><g/><clipPath id="e2cdec2613"><path d="M 333 90 L 355 90 L 355 113.230469 L 333 113.230469 Z M 333 90 " clip-rule="nonzero"/></clipPath><clipPath id="3a5e8dd7e5"><path d="M 352 67 L 372.210938 67 L 372.210938 86 L 352 86 Z M 352 67 " clip-rule="nonzero"/></clipPath><clipPath id="49ee67218a"><path d="M 324.210938 44.230469 L 352 44.230469 L 352 73 L 324.210938 73 Z M 324.210938 44.230469 " clip-rule="nonzero"/></clipPath><clipPath id="c16708fc2d"><rect x="0" width="84" y="0" height="65"/></clipPath><clipPath id="d8d24b5f10"><rect x="0" width="179" y="0" height="102"/></clipPath><clipPath id="e1860e4a6b"><rect x="0" width="133" y="0" height="57"/></clipPath></defs><g clip-path="url(#e2cdec2613)"><path fill="#ffbbbb" d="M 345.269531 103.707031 C 345.167969 103.179688 345.054688 102.65625 344.96875 102.117188 C 344.738281 100.746094 344.59375 99.359375 344.734375 97.964844 C 344.773438 97.585938 344.84375 97.214844 344.917969 96.835938 C 345.070312 96.113281 345.21875 95.390625 345.378906 94.671875 C 345.5 94.164062 345.699219 93.6875 345.96875 93.242188 C 346.609375 92.15625 347.484375 91.308594 348.589844 90.699219 C 349.738281 90.035156 351.527344 90.097656 352.558594 91.351562 C 353.042969 91.945312 353.492188 92.550781 353.78125 93.273438 C 353.839844 93.425781 353.90625 93.570312 353.984375 93.710938 C 354.476562 94.585938 354.597656 95.539062 354.640625 96.519531 C 354.726562 98.550781 354.332031 100.515625 353.867188 102.46875 C 353.402344 104.425781 352.648438 106.292969 351.832031 108.128906 C 351.507812 108.855469 351.128906 109.5625 350.777344 110.28125 C 350.652344 110.535156 350.539062 110.792969 350.417969 111.050781 C 350.203125 111.492188 349.988281 111.9375 349.761719 112.375 C 349.667969 112.519531 349.617188 112.675781 349.601562 112.851562 C 349.601562 113.117188 349.429688 113.222656 349.175781 113.125 C 348.945312 113.035156 348.707031 113.003906 348.460938 113.03125 C 348.191406 113.023438 347.929688 112.964844 347.679688 112.855469 C 346.25 112.351562 344.796875 111.9375 343.316406 111.613281 C 342.269531 111.394531 341.300781 110.980469 340.414062 110.371094 C 339.4375 109.6875 338.4375 109.027344 337.488281 108.304688 C 336.453125 107.515625 335.601562 106.539062 334.8125 105.507812 C 333.996094 104.445312 333.589844 103.214844 333.335938 101.921875 C 333.207031 101.28125 333.082031 100.640625 333.167969 99.980469 C 333.21875 99.410156 333.425781 98.90625 333.789062 98.460938 C 334.417969 97.703125 335.210938 97.214844 336.167969 96.988281 C 337.191406 96.742188 338.152344 96.894531 339.046875 97.453125 C 339.808594 97.902344 340.484375 98.453125 341.074219 99.105469 C 342.0625 100.226562 343.019531 101.359375 344.003906 102.484375 C 344.382812 102.917969 344.800781 103.320312 345.199219 103.734375 Z M 344.957031 111.417969 C 344.917969 111.378906 344.878906 111.347656 344.832031 111.316406 C 344.070312 110.949219 343.292969 110.601562 342.535156 110.214844 C 341.589844 109.734375 340.617188 109.296875 339.742188 108.710938 C 338.101562 107.605469 336.691406 106.257812 335.519531 104.667969 C 335.003906 103.980469 334.628906 103.222656 334.390625 102.398438 C 334.089844 101.371094 333.820312 100.347656 333.941406 99.261719 C 333.710938 99.570312 333.613281 99.917969 333.640625 100.300781 C 333.675781 100.855469 333.742188 101.402344 333.84375 101.945312 C 334.046875 103.03125 334.394531 104.070312 335.054688 104.972656 C 335.929688 106.210938 336.976562 107.28125 338.191406 108.191406 C 339.078125 108.835938 339.996094 109.4375 340.898438 110.046875 C 341.570312 110.496094 342.300781 110.816406 343.089844 110.996094 Z M 348.128906 107.84375 L 348.234375 107.832031 C 348.25 107.746094 348.273438 107.664062 348.289062 107.582031 C 348.5 106.46875 348.6875 105.351562 348.917969 104.246094 C 349.332031 102.289062 349.519531 100.3125 349.480469 98.3125 C 349.476562 97.871094 349.34375 97.46875 349.089844 97.109375 C 349.023438 97.046875 348.957031 96.988281 348.878906 96.9375 C 348.878906 97.03125 348.867188 97.078125 348.867188 97.125 C 348.835938 97.960938 348.84375 98.800781 348.769531 99.632812 C 348.617188 101.371094 348.398438 103.105469 348.234375 104.84375 C 348.148438 105.722656 348.109375 106.609375 348.0625 107.492188 C 348.070312 107.613281 348.09375 107.730469 348.128906 107.84375 Z M 336.160156 102.105469 C 336.238281 102.496094 336.394531 102.851562 336.628906 103.175781 C 337.289062 104.109375 337.957031 105.035156 338.636719 105.953125 C 338.871094 106.242188 339.121094 106.511719 339.390625 106.769531 C 339.566406 106.953125 339.785156 107.046875 340.039062 107.046875 C 340.035156 107.015625 340.027344 106.984375 340.015625 106.957031 C 339.113281 105.695312 338.292969 104.382812 337.558594 103.019531 C 337.496094 102.910156 337.410156 102.835938 337.292969 102.796875 C 336.855469 102.667969 336.476562 102.4375 336.160156 102.105469 Z M 347.15625 100.140625 L 347.25 100.140625 C 347.316406 99.667969 347.417969 99.195312 347.445312 98.722656 C 347.511719 97.539062 347.710938 96.375 348.035156 95.238281 C 348.136719 94.882812 347.984375 94.328125 347.695312 94.019531 C 347.445312 94.488281 347.160156 94.933594 347.148438 95.492188 C 347.132812 96.558594 347.097656 97.628906 347.089844 98.703125 C 347.085938 99.183594 347.132812 99.664062 347.15625 100.140625 Z M 350.058594 94.90625 C 350.011719 95.136719 349.976562 95.367188 349.957031 95.597656 C 349.964844 95.84375 349.984375 96.089844 350.015625 96.332031 C 350.015625 96.429688 350.03125 96.53125 350.03125 96.632812 C 350.066406 97.816406 350.089844 98.996094 350.132812 100.175781 C 350.148438 100.625 350.207031 101.078125 350.242188 101.527344 C 350.320312 101.46875 350.371094 101.390625 350.394531 101.296875 C 350.570312 100.710938 350.65625 100.113281 350.640625 99.503906 C 350.621094 98.433594 350.582031 97.363281 350.527344 96.292969 C 350.507812 95.785156 350.351562 95.324219 350.058594 94.90625 Z M 337.96875 106.050781 L 337.761719 105.757812 C 337.261719 105.042969 336.761719 104.332031 336.257812 103.613281 C 335.664062 102.773438 335.378906 101.835938 335.402344 100.804688 C 335.394531 100.710938 335.378906 100.617188 335.355469 100.527344 C 335.042969 100.996094 334.90625 101.421875 335.023438 101.9375 C 335.25 102.933594 335.679688 103.839844 336.308594 104.648438 C 336.746094 105.25 337.300781 105.71875 337.96875 106.050781 Z M 354.058594 96.105469 C 353.664062 97.617188 352.902344 102.9375 352.976562 103.585938 C 353.488281 102.085938 353.761719 100.527344 354.011719 98.964844 C 354.164062 98.011719 354.109375 97.058594 354.054688 96.105469 Z M 341.085938 99.945312 C 340.464844 99.148438 339.722656 98.488281 338.859375 97.964844 C 337.988281 97.410156 337.066406 97.335938 336.09375 97.5625 C 335.957031 97.601562 335.828125 97.652344 335.699219 97.710938 C 336.3125 97.78125 336.902344 97.816406 337.503906 97.835938 C 338.097656 97.828125 338.613281 98.027344 339.050781 98.429688 C 339.363281 98.726562 339.679688 99.015625 339.984375 99.320312 C 340.296875 99.621094 340.664062 99.828125 341.082031 99.945312 Z M 347.472656 110.832031 C 346.917969 110.480469 346.445312 110.175781 345.96875 109.875 C 345.925781 109.84375 345.882812 109.828125 345.832031 109.824219 C 345.449219 109.859375 345.140625 109.675781 344.828125 109.503906 C 344.226562 109.175781 343.625 108.835938 343.023438 108.503906 C 342.910156 108.4375 342.792969 108.378906 342.683594 108.316406 C 343.78125 109.507812 346.136719 110.746094 347.46875 110.832031 Z M 347.921875 102.703125 C 348.183594 101.683594 348.488281 97.988281 348.335938 97.515625 C 348.113281 98.265625 347.863281 98.976562 347.839844 99.714844 C 347.8125 100.613281 347.867188 101.53125 347.886719 102.445312 C 347.882812 102.519531 347.898438 102.585938 347.917969 102.703125 Z M 351.542969 94.855469 C 351.542969 96.449219 351.4375 98.039062 351.648438 99.625 C 351.941406 98.03125 352.160156 96.4375 351.542969 94.855469 Z M 351.453125 91.101562 L 351.375 91.175781 C 351.527344 91.4375 351.714844 91.671875 351.929688 91.878906 C 352.628906 92.472656 353.078125 93.214844 353.285156 94.105469 C 353.394531 94.546875 353.507812 94.984375 353.621094 95.4375 L 354.050781 95.472656 C 354.003906 95.234375 353.941406 94.996094 353.859375 94.765625 C 353.558594 94.082031 353.257812 93.390625 352.894531 92.738281 C 352.636719 92.316406 352.34375 91.925781 352.007812 91.5625 C 351.839844 91.390625 351.65625 91.238281 351.457031 91.101562 Z M 338.414062 101.660156 C 338.59375 102.464844 339.960938 104.246094 340.566406 104.574219 C 340.386719 104.253906 340.210938 103.960938 340.054688 103.660156 C 339.898438 103.355469 339.769531 103.03125 339.625 102.71875 C 339.605469 102.671875 339.578125 102.632812 339.542969 102.597656 C 339.167969 102.285156 338.792969 101.972656 338.414062 101.660156 Z M 340.847656 106.175781 C 340.742188 105.769531 340.546875 105.410156 340.269531 105.097656 C 339.71875 104.601562 339.222656 104.058594 338.777344 103.464844 C 338.691406 103.375 338.597656 103.296875 338.496094 103.230469 C 338.773438 104.097656 340.171875 105.824219 340.847656 106.175781 Z M 337.230469 102.332031 C 337.160156 102.148438 337.101562 102.015625 337.0625 101.878906 C 336.949219 101.53125 336.855469 101.179688 336.78125 100.820312 C 336.742188 100.589844 336.65625 100.46875 336.445312 100.425781 C 335.90625 100.90625 336.367188 102.1875 337.230469 102.332031 Z M 338.09375 100.820312 C 338.304688 100.972656 338.5 101.121094 338.695312 101.253906 C 338.890625 101.390625 339.050781 101.578125 339.316406 101.660156 L 339.316406 100.824219 C 339.113281 100.710938 338.902344 100.605469 338.6875 100.511719 C 338.417969 100.414062 338.257812 100.496094 338.09375 100.820312 Z M 348.65625 95.179688 C 348.703125 95.480469 348.785156 95.703125 348.769531 95.914062 C 348.726562 96.421875 349.132812 96.589844 349.445312 96.945312 C 349.414062 96.539062 349.398438 96.222656 349.359375 95.90625 C 349.339844 95.796875 349.289062 95.707031 349.207031 95.628906 C 349.0625 95.488281 348.890625 95.371094 348.65625 95.179688 Z M 348.613281 108.9375 C 348.679688 108.890625 348.707031 108.882812 348.714844 108.863281 C 348.742188 108.820312 348.761719 108.777344 348.78125 108.730469 C 349.03125 108.214844 349.164062 107.667969 349.171875 107.09375 C 349.171875 106.886719 349.207031 106.675781 349.222656 106.46875 C 349.25 106.128906 349.273438 105.785156 349.300781 105.445312 L 349.226562 105.433594 Z M 341.222656 105.902344 C 341.230469 106.175781 341.304688 106.425781 341.453125 106.65625 C 341.597656 106.886719 341.792969 107.066406 342.035156 107.1875 C 342.207031 107.28125 342.363281 107.410156 342.527344 107.515625 C 342.691406 107.625 342.851562 107.714844 343.015625 107.816406 L 343.0625 107.753906 C 342.910156 107.617188 342.75 107.492188 342.609375 107.347656 C 342.332031 107.089844 342.078125 106.808594 341.847656 106.503906 C 341.667969 106.273438 341.460938 106.074219 341.222656 105.902344 Z M 334.511719 99.882812 C 334.882812 98.867188 335.730469 98.566406 336.667969 98.394531 C 336.335938 98.3125 336.003906 98.316406 335.671875 98.398438 C 335.339844 98.484375 335.046875 98.640625 334.792969 98.871094 C 334.484375 99.136719 334.480469 99.5 334.511719 99.882812 Z M 343.625 106.96875 C 343.226562 106.355469 341.601562 104.566406 341.320312 104.414062 C 341.976562 105.398438 342.65625 106.308594 343.625 106.96875 Z M 352.78125 94.324219 L 352.671875 94.351562 C 352.71875 94.699219 352.757812 95.050781 352.824219 95.402344 C 352.871094 95.695312 352.964844 95.980469 352.746094 96.246094 C 352.714844 96.289062 352.707031 96.335938 352.714844 96.382812 C 352.792969 96.828125 352.878906 97.269531 352.957031 97.714844 C 353.070312 96.746094 353.058594 95.773438 352.925781 94.804688 C 352.886719 94.640625 352.835938 94.480469 352.78125 94.324219 Z M 350.492188 104.019531 L 350.597656 104.035156 C 350.625 103.984375 350.636719 103.925781 350.644531 103.867188 C 350.605469 103.5 350.734375 103.167969 350.851562 102.828125 C 351.035156 102.285156 351.011719 101.71875 351.019531 101.15625 C 350.863281 102.113281 350.617188 103.058594 350.492188 104.019531 Z M 350.960938 95.578125 L 351.054688 95.578125 C 351.085938 94.992188 351.039062 94.410156 350.921875 93.835938 C 350.902344 93.738281 350.796875 93.65625 350.730469 93.566406 L 350.664062 93.601562 Z M 348.28125 94.023438 C 348.433594 93.847656 348.550781 93.699219 348.671875 93.550781 C 348.824219 93.371094 348.8125 93.351562 348.605469 93.132812 C 348.359375 93.171875 348.171875 93.300781 348.050781 93.515625 Z M 340.339844 101.894531 C 340.214844 102.578125 340.667969 102.925781 341.164062 103.246094 C 340.894531 102.796875 340.621094 102.347656 340.34375 101.898438 Z M 348.6875 94.582031 C 348.71875 94.914062 348.933594 95.207031 349.316406 95.410156 C 349.265625 95.136719 349.226562 94.886719 349.191406 94.695312 Z M 347.617188 105.5625 L 347.679688 105.5625 C 347.722656 105.09375 347.765625 104.628906 347.8125 104.125 L 347.46875 104.277344 Z M 350.671875 107.214844 C 350.996094 106.871094 351.132812 106.464844 351.089844 105.996094 C 350.828125 106.359375 350.691406 106.761719 350.671875 107.207031 Z M 349.46875 92.433594 C 349.246094 92.195312 349.019531 91.984375 348.675781 91.945312 C 348.757812 92.097656 348.871094 92.203125 348.953125 92.332031 C 349.082031 92.53125 349.246094 92.546875 349.46875 92.429688 Z M 350.515625 108.621094 C 350.25 109.007812 350.097656 109.433594 350.0625 109.902344 C 350.339844 109.515625 350.488281 109.089844 350.511719 108.617188 Z M 343.527344 105.101562 C 343.378906 105.390625 343.574219 105.492188 343.691406 105.621094 C 343.800781 105.761719 343.929688 105.882812 344.078125 105.984375 L 344.140625 105.921875 Z M 349.644531 108.851562 L 349.746094 108.886719 C 349.941406 108.539062 349.972656 108.148438 350.054688 107.765625 L 349.976562 107.746094 C 349.863281 108.113281 349.753906 108.484375 349.644531 108.851562 Z M 348.234375 96.066406 L 348.074219 96.792969 C 348.375 96.605469 348.402344 96.359375 348.234375 96.066406 Z M 337.847656 100.121094 C 337.585938 100.050781 337.460938 100.09375 337.417969 100.265625 C 337.375 100.4375 337.488281 100.464844 337.625 100.472656 Z M 352.503906 100.195312 L 352.398438 100.179688 L 352.277344 101.105469 L 352.359375 101.117188 Z M 338.226562 99.292969 C 337.910156 99.089844 337.804688 99.105469 337.507812 99.40625 Z M 346.703125 104.183594 L 346.777344 104.183594 C 346.777344 103.964844 346.878906 103.730469 346.585938 103.515625 Z M 350.011719 93.253906 C 350.011719 93.476562 349.976562 93.703125 350.210938 93.847656 C 350.191406 93.640625 350.191406 93.421875 350.003906 93.261719 Z M 347.605469 109.675781 L 347.257812 109.140625 C 347.183594 109.511719 347.183594 109.511719 347.59375 109.679688 Z M 347.453125 102.40625 L 347.410156 102.417969 L 347.410156 103.386719 L 347.453125 103.386719 Z M 336.746094 99.3125 L 336.714844 99.292969 L 336.25 99.742188 L 336.273438 99.769531 Z M 347.671875 92.921875 L 347.71875 92.984375 L 348.203125 92.644531 C 347.871094 92.636719 347.839844 92.65625 347.671875 92.921875 Z M 350.273438 90.925781 L 349.820312 90.886719 C 350.050781 91.210938 350.050781 91.210938 350.273438 90.925781 Z M 335.234375 99.640625 L 335.625 99.292969 C 335.34375 99.410156 335.304688 99.449219 335.238281 99.632812 Z M 338.808594 107.105469 L 338.761719 107.175781 L 339.117188 107.410156 L 339.15625 107.351562 Z M 349.398438 91.734375 C 349.667969 91.941406 349.667969 91.941406 349.738281 91.734375 C 349.691406 91.734375 349.644531 91.71875 349.589844 91.714844 C 349.535156 91.714844 349.503906 91.71875 349.402344 91.726562 Z M 340.648438 107.8125 C 340.507812 107.53125 340.507812 107.53125 340.296875 107.558594 Z M 348.8125 111.453125 L 348.726562 111.445312 L 348.6875 111.761719 L 348.757812 111.769531 C 348.777344 111.664062 348.792969 111.558594 348.8125 111.453125 Z M 339.8125 101.371094 L 339.925781 101.414062 C 339.9375 101.347656 339.949219 101.28125 339.953125 101.214844 C 339.953125 101.207031 339.898438 101.191406 339.894531 101.191406 C 339.859375 101.25 339.832031 101.316406 339.8125 101.371094 Z M 344.507812 105.410156 L 344.546875 105.382812 L 344.410156 105.222656 L 344.371094 105.253906 Z M 344.710938 105.570312 L 344.660156 105.621094 L 344.835938 105.75 L 344.851562 105.730469 Z M 344.710938 105.570312 " fill-opacity="1" fill-rule="nonzero"/></g><g clip-path="url(#3a5e8dd7e5)"><path fill="#ffbbbb" d="M 360.648438 77.128906 C 360.84375 76.699219 361.03125 76.265625 361.234375 75.839844 C 361.765625 74.738281 362.363281 73.675781 363.167969 72.75 C 363.390625 72.5 363.628906 72.265625 363.871094 72.035156 C 364.34375 71.589844 364.820312 71.15625 365.296875 70.71875 C 365.640625 70.417969 366.019531 70.175781 366.441406 69.996094 C 367.449219 69.542969 368.5 69.378906 369.597656 69.5 C 370.757812 69.605469 372.003906 70.550781 372.109375 71.96875 C 372.179688 72.636719 372.148438 73.304688 372.011719 73.964844 C 371.976562 74.097656 371.949219 74.238281 371.933594 74.375 C 371.84375 75.25 371.449219 75.992188 370.980469 76.71875 C 370.015625 78.21875 368.742188 79.421875 367.417969 80.582031 C 366.097656 81.742188 364.613281 82.703125 363.101562 83.601562 C 362.5 83.960938 361.871094 84.273438 361.253906 84.609375 C 361.039062 84.726562 360.824219 84.855469 360.609375 84.976562 C 360.230469 85.183594 359.855469 85.394531 359.46875 85.59375 C 359.332031 85.648438 359.210938 85.738281 359.113281 85.851562 C 358.976562 86.042969 358.800781 86.03125 358.671875 85.832031 C 358.550781 85.65625 358.394531 85.511719 358.207031 85.40625 C 358.015625 85.265625 357.859375 85.089844 357.734375 84.886719 C 356.96875 83.804688 356.136719 82.773438 355.242188 81.792969 C 354.601562 81.105469 354.121094 80.320312 353.800781 79.441406 C 353.441406 78.457031 353.0625 77.488281 352.746094 76.484375 C 352.40625 75.398438 352.296875 74.269531 352.246094 73.132812 C 352.203125 71.960938 352.53125 70.878906 353 69.820312 C 353.230469 69.296875 353.46875 68.777344 353.859375 68.347656 C 354.191406 67.972656 354.597656 67.71875 355.082031 67.585938 C 355.914062 67.363281 356.726562 67.414062 357.527344 67.738281 C 358.390625 68.074219 359.003906 68.667969 359.363281 69.519531 C 359.679688 70.222656 359.882812 70.957031 359.972656 71.722656 C 360.113281 73.019531 360.222656 74.320312 360.359375 75.617188 C 360.410156 76.117188 360.507812 76.617188 360.582031 77.121094 Z M 356.523438 82.484375 C 356.515625 82.4375 356.503906 82.394531 356.488281 82.351562 C 356.125 81.703125 355.746094 81.0625 355.402344 80.398438 C 354.96875 79.578125 354.5 78.769531 354.164062 77.910156 C 353.546875 76.289062 353.222656 74.617188 353.1875 72.882812 C 353.167969 72.132812 353.28125 71.402344 353.53125 70.691406 C 353.839844 69.8125 354.15625 68.9375 354.792969 68.222656 C 354.472656 68.332031 354.226562 68.53125 354.054688 68.824219 C 353.800781 69.234375 353.574219 69.660156 353.371094 70.101562 C 352.964844 70.980469 352.691406 71.90625 352.703125 72.878906 C 352.703125 74.203125 352.910156 75.5 353.316406 76.761719 C 353.625 77.664062 353.972656 78.566406 354.320312 79.464844 C 354.570312 80.128906 354.933594 80.722656 355.40625 81.253906 Z M 360.601562 81.53125 L 360.683594 81.574219 C 360.738281 81.523438 360.792969 81.476562 360.847656 81.425781 C 361.558594 80.734375 362.261719 80.03125 362.984375 79.355469 C 364.273438 78.164062 365.40625 76.84375 366.390625 75.390625 C 366.613281 75.074219 366.722656 74.71875 366.722656 74.332031 C 366.710938 74.253906 366.691406 74.175781 366.660156 74.101562 C 366.605469 74.167969 366.578125 74.199219 366.554688 74.230469 C 366.109375 74.8125 365.691406 75.414062 365.21875 75.972656 C 364.226562 77.140625 363.195312 78.273438 362.199219 79.429688 C 361.691406 80.015625 361.214844 80.628906 360.734375 81.230469 C 360.675781 81.328125 360.632812 81.429688 360.601562 81.535156 Z M 354.941406 71.386719 C 354.800781 71.707031 354.730469 72.039062 354.738281 72.390625 C 354.738281 73.390625 354.738281 74.390625 354.769531 75.394531 C 354.789062 75.714844 354.828125 76.035156 354.890625 76.351562 C 354.925781 76.574219 355.03125 76.75 355.214844 76.882812 C 355.226562 76.855469 355.238281 76.832031 355.242188 76.804688 C 355.234375 75.445312 355.3125 74.09375 355.480469 72.746094 C 355.488281 72.636719 355.464844 72.539062 355.402344 72.449219 C 355.15625 72.132812 355 71.78125 354.941406 71.386719 Z M 363.800781 75.53125 L 363.867188 75.582031 C 364.15625 75.28125 364.46875 74.992188 364.722656 74.667969 C 365.371094 73.855469 366.101562 73.125 366.910156 72.472656 C 367.203125 72.1875 367.328125 71.839844 367.285156 71.429688 C 366.867188 71.640625 366.4375 71.8125 366.148438 72.207031 C 365.59375 72.957031 365.027344 73.710938 364.480469 74.472656 C 364.238281 74.8125 364.023438 75.175781 363.800781 75.53125 Z M 368.527344 73.253906 C 368.375 73.398438 368.234375 73.546875 368.105469 73.707031 C 367.984375 73.882812 367.875 74.070312 367.773438 74.257812 C 367.730469 74.332031 367.683594 74.410156 367.636719 74.476562 C 367.0625 75.339844 366.484375 76.195312 365.917969 77.0625 C 365.703125 77.394531 365.511719 77.742188 365.316406 78.082031 C 365.402344 78.082031 365.480469 78.050781 365.546875 77.996094 C 365.964844 77.667969 366.328125 77.285156 366.625 76.84375 C 367.152344 76.070312 367.664062 75.285156 368.167969 74.492188 C 368.40625 74.117188 368.527344 73.703125 368.527344 73.253906 Z M 354.238281 75.117188 C 354.238281 75.015625 354.238281 74.914062 354.238281 74.808594 C 354.238281 74.042969 354.238281 73.277344 354.238281 72.511719 C 354.242188 71.609375 354.515625 70.792969 355.054688 70.070312 C 355.097656 70 355.132812 69.925781 355.164062 69.851562 C 354.699219 70.027344 354.382812 70.257812 354.210938 70.691406 C 353.871094 71.519531 353.71875 72.382812 353.761719 73.28125 C 353.769531 73.933594 353.929688 74.542969 354.242188 75.117188 Z M 370.78125 76.132812 C 369.730469 77.011719 366.5 80.433594 366.222656 80.9375 C 367.351562 80.121094 368.328125 79.144531 369.304688 78.15625 C 369.890625 77.546875 370.339844 76.839844 370.78125 76.132812 Z M 359.558594 72.324219 C 359.515625 71.441406 359.320312 70.59375 358.96875 69.78125 C 358.625 68.949219 358.003906 68.429688 357.199219 68.09375 C 357.082031 68.050781 356.960938 68.019531 356.839844 67.996094 C 357.246094 68.355469 357.652344 68.683594 358.070312 68.996094 C 358.496094 69.292969 358.765625 69.691406 358.878906 70.199219 C 358.953125 70.566406 359.027344 70.9375 359.09375 71.308594 C 359.164062 71.683594 359.316406 72.023438 359.558594 72.324219 Z M 358.617188 83.335938 C 358.402344 82.800781 358.214844 82.347656 358.027344 81.890625 C 358.015625 81.847656 357.988281 81.8125 357.957031 81.785156 C 357.664062 81.617188 357.539062 81.324219 357.402344 81.046875 C 357.128906 80.511719 356.875 79.964844 356.613281 79.417969 C 356.5625 79.316406 356.511719 79.214844 356.460938 79.117188 C 356.65625 80.53125 357.710938 82.605469 358.617188 83.339844 Z M 363.050781 77.746094 C 363.753906 77.144531 365.839844 74.660156 365.96875 74.242188 C 365.429688 74.671875 364.894531 75.050781 364.503906 75.566406 C 364.023438 76.199219 363.601562 76.878906 363.148438 77.542969 C 363.121094 77.597656 363.097656 77.65625 363.050781 77.75 Z M 369.613281 73.976562 C 368.808594 75.113281 367.929688 76.199219 367.277344 77.4375 C 368.292969 76.441406 369.253906 75.410156 369.613281 73.976562 Z M 371.449219 71.242188 L 371.355469 71.257812 C 371.335938 71.519531 371.347656 71.785156 371.398438 72.042969 C 371.601562 72.820312 371.550781 73.578125 371.25 74.320312 C 371.097656 74.691406 370.964844 75.0625 370.816406 75.445312 L 371.101562 75.6875 C 371.191406 75.492188 371.265625 75.292969 371.324219 75.085938 C 371.453125 74.441406 371.589844 73.796875 371.660156 73.148438 C 371.691406 72.71875 371.679688 72.289062 371.625 71.863281 C 371.585938 71.648438 371.527344 71.441406 371.449219 71.242188 Z M 356.78125 72.207031 C 356.5 72.871094 356.578125 74.835938 356.847656 75.375 C 356.878906 75.058594 356.898438 74.761719 356.945312 74.464844 C 356.988281 74.167969 357.054688 73.871094 357.113281 73.578125 C 357.121094 73.535156 357.121094 73.492188 357.113281 73.449219 C 357.003906 73.03125 356.894531 72.625 356.78125 72.207031 Z M 356.238281 76.667969 C 356.363281 76.324219 356.410156 75.96875 356.367188 75.601562 C 356.226562 74.96875 356.144531 74.328125 356.128906 73.679688 C 356.109375 73.574219 356.085938 73.472656 356.046875 73.371094 C 355.804688 74.125 355.933594 76.078125 356.238281 76.664062 Z M 355.59375 72.089844 C 355.636719 71.925781 355.660156 71.800781 355.703125 71.679688 C 355.796875 71.375 355.910156 71.074219 356.039062 70.78125 C 356.128906 70.59375 356.128906 70.464844 355.996094 70.328125 C 355.371094 70.398438 355.050781 71.550781 355.59375 72.085938 Z M 356.976562 71.445312 C 357.050781 71.660156 357.113281 71.863281 357.191406 72.0625 C 357.269531 72.261719 357.28125 72.472656 357.429688 72.664062 L 357.855469 72.0625 C 357.765625 71.875 357.664062 71.695312 357.554688 71.523438 C 357.414062 71.3125 357.257812 71.296875 356.976562 71.445312 Z M 367.382812 72.746094 C 367.308594 72.949219 367.210938 73.140625 367.09375 73.324219 C 366.808594 73.667969 367.011719 73.992188 367.054688 74.40625 C 367.238281 74.097656 367.390625 73.863281 367.519531 73.617188 C 367.5625 73.53125 367.570312 73.441406 367.554688 73.34375 C 367.519531 73.167969 367.457031 72.996094 367.382812 72.742188 Z M 360.394531 82.5625 C 360.433594 82.566406 360.46875 82.566406 360.507812 82.5625 C 360.542969 82.542969 360.582031 82.523438 360.617188 82.5 C 361.058594 82.257812 361.429688 81.933594 361.726562 81.527344 C 361.835938 81.375 361.960938 81.246094 362.078125 81.105469 L 362.652344 80.410156 L 362.605469 80.367188 C 361.875 81.085938 361.148438 81.8125 360.394531 82.5625 Z M 356.644531 76.660156 C 356.511719 76.859375 356.4375 77.078125 356.425781 77.316406 C 356.414062 77.554688 356.460938 77.78125 356.574219 77.992188 C 356.648438 78.140625 356.695312 78.3125 356.761719 78.472656 C 356.824219 78.632812 356.890625 78.773438 356.957031 78.933594 L 357.023438 78.910156 C 356.984375 78.738281 356.929688 78.566406 356.90625 78.394531 C 356.839844 78.066406 356.800781 77.738281 356.785156 77.40625 C 356.773438 77.148438 356.726562 76.898438 356.644531 76.65625 Z M 354.890625 68.964844 C 355.667969 68.425781 356.425781 68.636719 357.183594 68.992188 C 356.761719 68.507812 356.234375 68.308594 355.597656 68.390625 C 355.246094 68.417969 355.058594 68.671875 354.890625 68.964844 Z M 357.820312 78.632812 C 357.847656 77.992188 357.589844 75.890625 357.460938 75.648438 C 357.4375 76.679688 357.464844 77.671875 357.820312 78.632812 Z M 370.769531 74.210938 L 370.675781 74.175781 C 370.535156 74.449219 370.382812 74.71875 370.25 75 C 370.140625 75.234375 370.058594 75.488281 369.765625 75.5625 C 369.726562 75.578125 369.695312 75.605469 369.675781 75.648438 C 369.507812 76.003906 369.34375 76.363281 369.175781 76.722656 C 369.75 76.082031 370.230469 75.382812 370.625 74.621094 C 370.679688 74.488281 370.730469 74.351562 370.769531 74.210938 Z M 364.226562 79.996094 L 364.296875 80.058594 C 364.335938 80.027344 364.390625 80.003906 364.414062 79.964844 C 364.570312 79.679688 364.835938 79.511719 365.089844 79.324219 C 365.496094 79.023438 365.765625 78.609375 366.054688 78.210938 C 365.457031 78.820312 364.800781 79.367188 364.226562 79.996094 Z M 368.835938 74.195312 L 368.90625 74.242188 C 369.222656 73.835938 369.484375 73.398438 369.691406 72.929688 C 369.710938 72.832031 369.710938 72.734375 369.691406 72.636719 L 369.625 72.636719 Z M 367.707031 71.730469 C 367.898438 71.679688 368.0625 71.632812 368.226562 71.589844 C 368.421875 71.535156 368.429688 71.519531 368.390625 71.253906 C 368.191406 71.160156 367.996094 71.160156 367.796875 71.253906 Z M 358.042969 73.351562 C 357.609375 73.773438 357.753906 74.25 357.949219 74.734375 C 357.980469 74.273438 358.011719 73.8125 358.042969 73.351562 Z M 367.710938 72.328125 C 367.554688 72.636719 367.5625 72.941406 367.742188 73.238281 L 368.015625 72.664062 Z M 361.394531 79.644531 L 361.441406 79.675781 L 362.261719 78.714844 L 361.9375 78.652344 Z M 362.75 82.367188 C 363.152344 82.28125 363.457031 82.0625 363.664062 81.703125 C 363.289062 81.832031 362.980469 82.050781 362.742188 82.367188 Z M 369.367188 71.183594 C 369.328125 70.902344 369.277344 70.628906 369.042969 70.433594 C 369.03125 70.582031 369.054688 70.714844 369.042969 70.847656 C 369.03125 71.0625 369.136719 71.15625 369.355469 71.183594 Z M 361.917969 83.289062 C 361.53125 83.429688 361.207031 83.65625 360.945312 83.972656 C 361.335938 83.839844 361.660156 83.613281 361.917969 83.289062 Z M 358.699219 77.25 C 358.445312 77.378906 358.53125 77.550781 358.546875 77.699219 C 358.554688 77.855469 358.585938 78.007812 358.644531 78.152344 L 358.71875 78.136719 Z M 361.175781 83.019531 L 361.230469 83.09375 C 361.546875 82.945312 361.769531 82.683594 362.015625 82.449219 L 361.96875 82.394531 Z M 366.632812 73.164062 L 366.152344 73.601562 C 366.460938 73.617188 366.609375 73.457031 366.632812 73.164062 Z M 357.148438 70.820312 C 357 70.636719 356.886719 70.605469 356.769531 70.707031 C 356.65625 70.808594 356.722656 70.886719 356.8125 70.960938 Z M 367.597656 78.273438 L 367.53125 78.207031 L 366.972656 78.808594 L 367.027344 78.859375 Z M 357.839844 70.421875 C 357.71875 70.121094 357.632812 70.074219 357.269531 70.136719 Z M 361.429688 78.199219 L 361.480469 78.238281 C 361.589844 78.089844 361.78125 77.964844 361.683594 77.664062 Z M 369.324219 72.050781 C 369.207031 72.199219 369.066406 72.351562 369.171875 72.578125 C 369.257812 72.414062 369.371094 72.257812 369.324219 72.050781 Z M 359.289062 82.578125 L 359.308594 82.019531 C 359.085938 82.25 359.085938 82.25 359.289062 82.578125 Z M 362.863281 77.300781 L 362.824219 77.292969 L 362.332031 77.984375 L 362.363281 78.003906 Z M 356.777344 69.683594 L 356.761719 69.65625 L 356.199219 69.746094 L 356.199219 69.777344 Z M 367.824219 70.628906 L 367.824219 70.699219 L 368.34375 70.699219 C 368.109375 70.527344 368.085938 70.519531 367.824219 70.628906 Z M 370.695312 70.515625 L 370.394531 70.257812 C 370.394531 70.605469 370.394531 70.605469 370.695312 70.519531 Z M 355.535156 69.152344 L 355.984375 69.101562 C 355.722656 69.042969 355.675781 69.054688 355.535156 69.152344 Z M 354.3125 76.296875 L 354.238281 76.332031 L 354.378906 76.679688 L 354.433594 76.65625 Z M 369.667969 70.652344 C 369.753906 70.933594 369.753906 70.933594 369.910156 70.820312 C 369.878906 70.792969 369.851562 70.761719 369.816406 70.734375 C 369.769531 70.703125 369.71875 70.675781 369.667969 70.652344 Z M 355.265625 77.730469 C 355.308594 77.457031 355.308594 77.457031 355.144531 77.367188 Z M 359.265625 84.457031 L 359.207031 84.40625 L 359.015625 84.613281 L 359.0625 84.65625 Z M 357.921875 72.699219 L 357.984375 72.785156 C 358.023438 72.742188 358.066406 72.703125 358.101562 72.65625 C 358.101562 72.65625 358.074219 72.609375 358.074219 72.609375 C 358.023438 72.644531 357.972656 72.671875 357.921875 72.703125 Z M 359.238281 77.957031 L 359.277344 77.957031 L 359.261719 77.773438 L 359.21875 77.773438 Z M 359.300781 78.171875 L 359.238281 78.183594 L 359.300781 78.363281 L 359.320312 78.363281 Z M 359.300781 78.171875 " fill-opacity="1" fill-rule="nonzero"/></g><g clip-path="url(#49ee67218a)"><path fill="#ffbbbb" d="M 339.390625 61.1875 C 339.265625 60.53125 339.125 59.875 339.015625 59.214844 C 338.726562 57.511719 338.546875 55.796875 338.722656 54.0625 C 338.769531 53.59375 338.855469 53.125 338.949219 52.664062 C 339.128906 51.761719 339.332031 50.871094 339.519531 49.976562 C 339.671875 49.347656 339.914062 48.757812 340.253906 48.207031 C 341.039062 46.84375 342.152344 45.828125 343.503906 45.050781 C 344.929688 44.226562 347.148438 44.300781 348.425781 45.859375 C 349.027344 46.59375 349.589844 47.363281 349.945312 48.246094 C 350.015625 48.433594 350.097656 48.613281 350.191406 48.789062 C 350.808594 49.871094 350.957031 51.050781 351.011719 52.273438 C 351.117188 54.792969 350.625 57.230469 350.050781 59.652344 C 349.472656 62.078125 348.546875 64.398438 347.527344 66.671875 C 347.121094 67.574219 346.652344 68.453125 346.214844 69.34375 C 346.066406 69.660156 345.914062 69.980469 345.765625 70.296875 C 345.5 70.847656 345.234375 71.398438 344.953125 71.941406 C 344.835938 72.121094 344.769531 72.316406 344.753906 72.53125 C 344.753906 72.863281 344.539062 72.992188 344.226562 72.871094 C 343.941406 72.761719 343.644531 72.722656 343.339844 72.757812 C 343.023438 72.777344 342.683594 72.648438 342.371094 72.539062 C 340.597656 71.914062 338.792969 71.398438 336.957031 70.996094 C 335.648438 70.722656 334.445312 70.210938 333.347656 69.453125 C 332.132812 68.605469 330.894531 67.789062 329.714844 66.890625 C 328.433594 65.914062 327.375 64.699219 326.394531 63.421875 C 325.390625 62.105469 324.886719 60.574219 324.566406 58.96875 C 324.417969 58.175781 324.253906 57.382812 324.359375 56.566406 C 324.429688 55.859375 324.695312 55.234375 325.148438 54.6875 C 325.925781 53.75 326.910156 53.140625 328.097656 52.859375 C 328.707031 52.710938 329.320312 52.6875 329.941406 52.789062 C 330.5625 52.886719 331.136719 53.105469 331.671875 53.4375 C 332.613281 53.992188 333.449219 54.675781 334.1875 55.488281 C 335.410156 56.875 336.589844 58.289062 337.816406 59.679688 C 338.289062 60.214844 338.804688 60.710938 339.300781 61.226562 Z M 339 70.753906 C 338.953125 70.707031 338.902344 70.664062 338.851562 70.625 C 337.898438 70.175781 336.9375 69.738281 335.992188 69.261719 C 334.824219 68.660156 333.613281 68.121094 332.535156 67.394531 C 330.496094 66.023438 328.75 64.351562 327.289062 62.378906 C 326.652344 61.523438 326.1875 60.585938 325.894531 59.5625 C 325.527344 58.289062 325.183594 57.019531 325.332031 55.671875 C 325.054688 56.054688 324.929688 56.488281 324.964844 56.960938 C 325.007812 57.648438 325.09375 58.328125 325.21875 59 C 325.46875 60.355469 325.902344 61.636719 326.722656 62.757812 C 327.828125 64.269531 329.085938 65.644531 330.605469 66.75 C 331.707031 67.546875 332.839844 68.296875 333.972656 69.050781 C 334.808594 69.613281 335.714844 70.003906 336.695312 70.230469 Z M 342.9375 66.3125 L 343.066406 66.296875 C 343.089844 66.191406 343.113281 66.089844 343.132812 65.996094 C 343.394531 64.617188 343.628906 63.230469 343.917969 61.859375 C 344.429688 59.429688 344.660156 56.976562 344.613281 54.496094 C 344.609375 53.945312 344.449219 53.441406 344.125 52.996094 C 344.050781 52.914062 343.964844 52.839844 343.875 52.777344 C 343.867188 52.894531 343.859375 52.953125 343.855469 53.011719 C 343.816406 54.046875 343.828125 55.089844 343.734375 56.121094 C 343.539062 58.277344 343.285156 60.429688 343.070312 62.582031 C 342.96875 63.671875 342.921875 64.769531 342.859375 65.867188 C 342.867188 66.019531 342.894531 66.167969 342.9375 66.3125 Z M 328.085938 59.199219 C 328.183594 59.683594 328.378906 60.128906 328.671875 60.527344 C 329.488281 61.683594 330.316406 62.835938 331.160156 63.972656 C 331.449219 64.332031 331.757812 64.667969 332.089844 64.984375 C 332.308594 65.214844 332.578125 65.328125 332.898438 65.332031 C 332.890625 65.292969 332.882812 65.253906 332.867188 65.21875 C 331.746094 63.65625 330.730469 62.027344 329.816406 60.332031 C 329.742188 60.199219 329.632812 60.109375 329.488281 60.054688 C 328.945312 59.894531 328.476562 59.609375 328.085938 59.199219 Z M 341.726562 56.761719 L 341.847656 56.761719 C 341.929688 56.175781 342.050781 55.589844 342.085938 55.003906 C 342.171875 53.539062 342.414062 52.101562 342.820312 50.691406 C 342.949219 50.25 342.757812 49.5625 342.398438 49.175781 C 342.089844 49.761719 341.730469 50.3125 341.722656 51.003906 C 341.699219 52.332031 341.65625 53.65625 341.644531 54.984375 C 341.640625 55.574219 341.699219 56.167969 341.730469 56.761719 Z M 345.335938 50.273438 C 345.277344 50.554688 345.234375 50.839844 345.210938 51.128906 C 345.21875 51.433594 345.242188 51.738281 345.28125 52.039062 C 345.289062 52.160156 345.296875 52.285156 345.304688 52.40625 C 345.34375 53.867188 345.375 55.332031 345.429688 56.796875 C 345.449219 57.355469 345.519531 57.914062 345.566406 58.472656 C 345.664062 58.398438 345.730469 58.300781 345.757812 58.183594 C 345.976562 57.460938 346.078125 56.722656 346.058594 55.96875 C 346.035156 54.640625 345.984375 53.316406 345.921875 51.992188 C 345.890625 51.359375 345.695312 50.789062 345.332031 50.273438 Z M 330.335938 64.09375 L 330.082031 63.734375 C 329.460938 62.847656 328.832031 61.960938 328.210938 61.074219 C 327.46875 60.027344 327.117188 58.863281 327.144531 57.585938 C 327.136719 57.46875 327.117188 57.355469 327.089844 57.246094 C 326.699219 57.824219 326.527344 58.351562 326.679688 58.992188 C 326.960938 60.230469 327.488281 61.355469 328.269531 62.359375 C 328.828125 63.070312 329.46875 63.695312 330.328125 64.089844 Z M 350.289062 51.757812 C 349.800781 53.632812 348.859375 60.230469 348.949219 61.039062 C 349.585938 59.171875 349.925781 57.242188 350.234375 55.300781 C 350.421875 54.121094 350.355469 52.941406 350.289062 51.757812 Z M 334.199219 56.519531 C 333.5 55.585938 332.496094 54.730469 331.4375 54.0625 C 330.378906 53.394531 329.210938 53.285156 328.003906 53.554688 C 327.835938 53.601562 327.671875 53.664062 327.515625 53.734375 C 328.277344 53.820312 329.019531 53.867188 329.753906 53.886719 C 330.492188 53.90625 331.136719 54.113281 331.675781 54.621094 C 332.0625 54.984375 332.457031 55.347656 332.832031 55.726562 C 333.222656 56.105469 333.675781 56.367188 334.195312 56.519531 Z M 342.121094 70.027344 C 341.4375 69.589844 340.847656 69.210938 340.257812 68.835938 C 340.207031 68.800781 340.152344 68.78125 340.089844 68.777344 C 339.617188 68.820312 339.230469 68.582031 338.84375 68.375 C 338.089844 67.972656 337.339844 67.550781 336.597656 67.136719 C 336.457031 67.058594 336.316406 66.984375 336.175781 66.90625 C 337.542969 68.382812 340.464844 69.917969 342.121094 70.027344 Z M 342.671875 59.941406 C 342.996094 58.675781 343.375 54.09375 343.179688 53.503906 C 342.910156 54.445312 342.597656 55.316406 342.566406 56.230469 C 342.53125 57.359375 342.601562 58.484375 342.628906 59.617188 C 342.636719 59.726562 342.652344 59.832031 342.671875 59.941406 Z M 347.183594 50.210938 C 347.183594 52.1875 347.050781 54.164062 347.3125 56.128906 C 347.664062 54.144531 347.933594 52.167969 347.183594 50.210938 Z M 347.070312 45.554688 L 346.972656 45.648438 C 347.164062 45.972656 347.394531 46.261719 347.664062 46.519531 C 348.53125 47.257812 349.089844 48.175781 349.347656 49.28125 C 349.480469 49.828125 349.625 50.371094 349.765625 50.933594 L 350.296875 50.980469 C 350.238281 50.679688 350.160156 50.386719 350.058594 50.097656 C 349.679688 49.25 349.304688 48.394531 348.855469 47.582031 C 348.535156 47.0625 348.171875 46.574219 347.757812 46.125 C 347.546875 45.914062 347.3125 45.722656 347.066406 45.554688 Z M 330.886719 58.652344 C 331.105469 59.652344 332.800781 61.859375 333.554688 62.269531 C 333.332031 61.871094 333.109375 61.515625 332.921875 61.132812 C 332.730469 60.746094 332.566406 60.355469 332.386719 59.964844 C 332.363281 59.910156 332.328125 59.859375 332.285156 59.816406 C 331.820312 59.421875 331.351562 59.035156 330.886719 58.652344 Z M 333.90625 64.253906 C 333.8125 63.855469 333.476562 63.191406 333.183594 62.917969 C 332.5 62.304688 331.882812 61.628906 331.335938 60.890625 C 331.230469 60.78125 331.113281 60.6875 330.988281 60.601562 C 331.328125 61.671875 333.066406 63.8125 333.90625 64.25 Z M 329.414062 59.480469 C 329.328125 59.253906 329.257812 59.089844 329.207031 58.917969 C 329.066406 58.488281 328.949219 58.046875 328.859375 57.601562 C 328.8125 57.316406 328.710938 57.164062 328.441406 57.113281 C 327.785156 57.710938 328.34375 59.300781 329.414062 59.480469 Z M 330.492188 57.601562 C 330.753906 57.789062 330.996094 57.972656 331.242188 58.136719 C 331.492188 58.304688 331.683594 58.542969 332.015625 58.640625 L 332.015625 57.605469 C 331.761719 57.460938 331.5 57.332031 331.230469 57.21875 C 330.886719 57.097656 330.691406 57.203125 330.492188 57.601562 Z M 343.589844 50.609375 C 343.648438 50.988281 343.75 51.257812 343.730469 51.519531 C 343.675781 52.148438 344.179688 52.355469 344.570312 52.800781 C 344.53125 52.292969 344.511719 51.898438 344.460938 51.511719 C 344.4375 51.375 344.375 51.261719 344.277344 51.167969 C 344.09375 50.988281 343.882812 50.839844 343.589844 50.609375 Z M 343.539062 67.675781 C 343.621094 67.617188 343.652344 67.605469 343.664062 67.582031 C 343.695312 67.53125 343.722656 67.476562 343.746094 67.417969 C 344.058594 66.777344 344.21875 66.101562 344.230469 65.390625 C 344.230469 65.128906 344.273438 64.871094 344.292969 64.613281 C 344.324219 64.1875 344.355469 63.765625 344.390625 63.339844 L 344.296875 63.328125 C 344.046875 64.761719 343.796875 66.191406 343.539062 67.675781 Z M 334.371094 63.910156 C 334.375 64.25 334.472656 64.5625 334.652344 64.847656 C 334.832031 65.132812 335.074219 65.355469 335.378906 65.507812 C 335.589844 65.625 335.78125 65.78125 335.980469 65.914062 C 336.179688 66.046875 336.382812 66.160156 336.582031 66.285156 L 336.640625 66.207031 C 336.453125 66.039062 336.253906 65.882812 336.082031 65.703125 C 335.738281 65.378906 335.421875 65.027344 335.132812 64.652344 C 334.914062 64.367188 334.660156 64.121094 334.371094 63.910156 Z M 326.042969 56.445312 C 326.503906 55.183594 327.546875 54.808594 328.71875 54.597656 C 328.304688 54.496094 327.890625 54.5 327.480469 54.605469 C 327.066406 54.710938 326.703125 54.910156 326.390625 55.195312 C 326.011719 55.515625 326.003906 55.96875 326.042969 56.445312 Z M 337.347656 65.234375 C 336.855469 64.46875 334.839844 62.25 334.492188 62.078125 C 335.304688 63.28125 336.148438 64.414062 337.347656 65.234375 Z M 348.707031 49.546875 L 348.570312 49.578125 C 348.628906 50.011719 348.679688 50.449219 348.753906 50.882812 C 348.8125 51.242188 348.929688 51.601562 348.65625 51.933594 C 348.617188 51.984375 348.605469 52.042969 348.617188 52.105469 C 348.714844 52.65625 348.820312 53.207031 348.917969 53.757812 C 349.03125 52.546875 349.070312 51.34375 348.875 50.152344 C 348.832031 49.945312 348.777344 49.746094 348.707031 49.546875 Z M 345.875 61.578125 L 346.007812 61.597656 C 346.039062 61.53125 346.058594 61.460938 346.0625 61.390625 C 346.011719 60.941406 346.179688 60.519531 346.320312 60.101562 C 346.550781 59.425781 346.519531 58.722656 346.527344 58.023438 C 346.332031 59.210938 346.023438 60.382812 345.875 61.578125 Z M 346.453125 51.101562 L 346.574219 51.101562 C 346.609375 50.375 346.554688 49.65625 346.410156 48.945312 C 346.386719 48.824219 346.257812 48.71875 346.171875 48.609375 L 346.085938 48.652344 C 346.210938 49.46875 346.332031 50.285156 346.453125 51.101562 Z M 343.132812 49.175781 C 343.3125 48.960938 343.46875 48.777344 343.617188 48.589844 C 343.796875 48.367188 343.792969 48.34375 343.53125 48.070312 C 343.226562 48.121094 343 48.28125 342.84375 48.546875 Z M 333.28125 58.941406 C 333.128906 59.789062 333.6875 60.21875 334.304688 60.621094 C 333.960938 60.058594 333.621094 59.5 333.28125 58.941406 Z M 343.628906 49.863281 C 343.667969 50.277344 343.929688 50.640625 344.410156 50.894531 C 344.347656 50.554688 344.296875 50.246094 344.257812 50.007812 Z M 342.304688 63.484375 L 342.371094 63.484375 L 342.539062 61.707031 L 342.109375 61.898438 C 342.179688 62.4375 342.242188 62.960938 342.304688 63.484375 Z M 346.09375 65.53125 C 346.480469 65.105469 346.628906 64.664062 346.609375 64.027344 C 346.285156 64.476562 346.113281 64.980469 346.09375 65.53125 Z M 344.597656 47.203125 C 344.320312 46.910156 344.039062 46.636719 343.609375 46.601562 C 343.710938 46.78125 343.851562 46.917969 343.957031 47.078125 C 344.117188 47.320312 344.324219 47.34375 344.597656 47.195312 Z M 345.890625 67.285156 C 345.53125 67.769531 345.402344 68.285156 345.324219 68.871094 C 345.671875 68.398438 345.859375 67.867188 345.890625 67.277344 Z M 337.230469 62.929688 C 337.042969 63.289062 337.285156 63.414062 337.429688 63.570312 C 337.566406 63.746094 337.726562 63.894531 337.910156 64.019531 L 337.988281 63.941406 Z M 344.816406 67.585938 L 344.941406 67.632812 C 345.1875 67.203125 345.226562 66.714844 345.324219 66.246094 L 345.226562 66.214844 Z M 343.066406 51.707031 L 342.867188 52.609375 C 343.238281 52.375 343.273438 52.070312 343.066406 51.707031 Z M 330.175781 56.746094 C 329.851562 56.65625 329.699219 56.710938 329.644531 56.921875 C 329.59375 57.132812 329.734375 57.167969 329.902344 57.179688 Z M 348.363281 56.835938 L 348.230469 56.816406 L 348.078125 57.964844 L 348.183594 57.980469 Z M 330.652344 55.71875 C 330.257812 55.464844 330.128906 55.484375 329.75 55.855469 Z M 341.167969 61.785156 L 341.261719 61.785156 C 341.261719 61.515625 341.382812 61.222656 341.023438 60.953125 C 341.078125 61.289062 341.121094 61.535156 341.167969 61.785156 Z M 345.265625 48.226562 C 345.257812 48.503906 345.21875 48.789062 345.515625 48.960938 C 345.488281 48.699219 345.488281 48.4375 345.265625 48.226562 Z M 342.273438 68.597656 L 341.839844 67.9375 C 341.769531 68.386719 341.769531 68.386719 342.273438 68.597656 Z M 342.089844 59.578125 L 342.035156 59.597656 L 342.035156 60.800781 L 342.089844 60.800781 Z M 328.8125 55.734375 L 328.777344 55.710938 L 328.199219 56.277344 L 328.230469 56.308594 Z M 342.371094 47.804688 L 342.429688 47.882812 L 343.03125 47.460938 C 342.613281 47.457031 342.578125 47.480469 342.371094 47.804688 Z M 345.59375 45.332031 L 345.035156 45.28125 C 345.320312 45.683594 345.320312 45.683594 345.59375 45.332031 Z M 326.949219 56.132812 L 327.433594 55.703125 C 327.074219 55.855469 327.03125 55.902344 326.945312 56.132812 Z M 331.378906 65.394531 L 331.324219 65.496094 L 331.765625 65.78125 L 331.8125 65.710938 Z M 344.519531 46.332031 C 344.847656 46.589844 344.847656 46.589844 344.9375 46.332031 C 344.878906 46.320312 344.820312 46.316406 344.761719 46.308594 C 344.679688 46.3125 344.597656 46.320312 344.519531 46.332031 Z M 333.648438 66.28125 C 333.476562 65.929688 333.476562 65.929688 333.210938 65.960938 Z M 343.78125 70.789062 L 343.671875 70.777344 L 343.621094 71.171875 L 343.710938 71.183594 C 343.742188 71.058594 343.761719 70.925781 343.785156 70.792969 Z M 332.613281 58.289062 L 332.753906 58.339844 C 332.765625 58.257812 332.78125 58.179688 332.789062 58.097656 C 332.789062 58.085938 332.714844 58.0625 332.714844 58.066406 C 332.675781 58.140625 332.644531 58.214844 332.613281 58.289062 Z M 338.4375 63.308594 L 338.484375 63.269531 L 338.308594 63.066406 L 338.261719 63.109375 Z M 338.6875 63.503906 L 338.625 63.570312 L 338.84375 63.71875 L 338.863281 63.695312 Z M 338.6875 63.503906 " fill-opacity="1" fill-rule="nonzero"/></g><g transform="matrix(1, 0, 0, 1, 0, 46)"><g clip-path="url(#c16708fc2d)"><g fill="#ac0000" fill-opacity="1"><g transform="translate(0.214492, 49.350921)"><g><path d="M 22.546875 -9.390625 C 22.835938 -8.554688 22.851562 -7.796875 22.59375 -7.109375 C 22.34375 -6.429688 21.914062 -5.804688 21.3125 -5.234375 C 20.40625 -4.398438 19.269531 -3.835938 17.90625 -3.546875 C 16.539062 -3.265625 15.140625 -3.238281 13.703125 -3.46875 C 12.265625 -3.707031 11.023438 -4.238281 9.984375 -5.0625 C 7.460938 -6.96875 6.039062 -9.503906 5.71875 -12.671875 C 5.570312 -13.753906 5.476562 -14.851562 5.4375 -15.96875 C 5.40625 -17.082031 5.375 -18.175781 5.34375 -19.25 C 5.34375 -19.789062 5.257812 -20.234375 5.09375 -20.578125 C 4.9375 -20.921875 4.601562 -21.179688 4.09375 -21.359375 C 3.375 -21.648438 2.804688 -22.0625 2.390625 -22.59375 C 1.984375 -23.132812 1.890625 -23.765625 2.109375 -24.484375 C 2.285156 -25.023438 2.597656 -25.554688 3.046875 -26.078125 C 3.492188 -26.597656 3.972656 -26.945312 4.484375 -27.125 C 5.128906 -27.414062 5.617188 -27.738281 5.953125 -28.09375 C 6.296875 -28.457031 6.488281 -29 6.53125 -29.71875 C 6.5625 -30.363281 6.640625 -31 6.765625 -31.625 C 6.890625 -32.257812 7.007812 -32.898438 7.125 -33.546875 C 7.519531 -35.742188 8.472656 -36.820312 9.984375 -36.78125 C 11.523438 -36.75 12.457031 -35.632812 12.78125 -33.4375 C 12.882812 -32.6875 12.945312 -31.921875 12.96875 -31.140625 C 12.988281 -30.367188 13 -29.609375 13 -28.859375 C 13 -27.847656 13.503906 -27.328125 14.515625 -27.296875 C 15.160156 -27.253906 15.804688 -27.207031 16.453125 -27.15625 C 17.097656 -27.101562 17.726562 -27.003906 18.34375 -26.859375 C 19.34375 -26.609375 20.113281 -26.09375 20.65625 -25.3125 C 21.195312 -24.539062 21.429688 -23.707031 21.359375 -22.8125 C 21.285156 -21.875 20.90625 -21.070312 20.21875 -20.40625 C 19.539062 -19.75 18.695312 -19.382812 17.6875 -19.3125 C 16.96875 -19.238281 16.222656 -19.207031 15.453125 -19.21875 C 14.679688 -19.238281 13.789062 -19.25 12.78125 -19.25 C 12.925781 -18.175781 13.050781 -17.085938 13.15625 -15.984375 C 13.269531 -14.890625 13.414062 -13.804688 13.59375 -12.734375 C 13.738281 -12.085938 14.050781 -11.617188 14.53125 -11.328125 C 15.019531 -11.035156 15.585938 -10.925781 16.234375 -11 C 16.660156 -11.070312 17.082031 -11.148438 17.5 -11.234375 C 17.914062 -11.328125 18.335938 -11.394531 18.765625 -11.4375 C 19.597656 -11.507812 20.34375 -11.390625 21 -11.078125 C 21.664062 -10.773438 22.179688 -10.210938 22.546875 -9.390625 Z M 22.546875 -9.390625 "/></g></g></g><g fill="#ac0000" fill-opacity="1"><g transform="translate(25.022767, 49.350921)"><g><path d="M 27.890625 -13.921875 C 28.140625 -12.617188 28.046875 -11.382812 27.609375 -10.21875 C 27.179688 -9.050781 26.554688 -7.945312 25.734375 -6.90625 C 24.972656 -5.96875 24.085938 -5.5625 23.078125 -5.6875 C 22.078125 -5.8125 21.359375 -6.453125 20.921875 -7.609375 C 20.671875 -8.253906 20.484375 -8.941406 20.359375 -9.671875 C 20.234375 -10.410156 20.117188 -11.140625 20.015625 -11.859375 C 19.867188 -12.835938 19.75 -13.8125 19.65625 -14.78125 C 19.570312 -15.75 19.457031 -16.71875 19.3125 -17.6875 C 19.238281 -18.125 19.101562 -18.554688 18.90625 -18.984375 C 18.707031 -19.421875 18.5 -19.925781 18.28125 -20.5 C 17.0625 -19.414062 16.109375 -18.296875 15.421875 -17.140625 C 14.742188 -15.992188 14.3125 -14.703125 14.125 -13.265625 C 13.988281 -12.191406 13.8125 -11.128906 13.59375 -10.078125 C 13.375 -9.035156 13.101562 -8.015625 12.78125 -7.015625 C 12.5 -6.078125 12.015625 -5.347656 11.328125 -4.828125 C 10.640625 -4.304688 9.796875 -4.046875 8.796875 -4.046875 C 7.816406 -4.078125 6.984375 -4.351562 6.296875 -4.875 C 5.617188 -5.394531 5.175781 -6.085938 4.96875 -6.953125 C 4.601562 -8.359375 4.273438 -9.757812 3.984375 -11.15625 C 3.703125 -12.5625 3.488281 -13.984375 3.34375 -15.421875 C 3.050781 -18.910156 2.804688 -22.414062 2.609375 -25.9375 C 2.410156 -29.46875 2.207031 -32.976562 2 -36.46875 C 1.957031 -37.144531 1.988281 -37.816406 2.09375 -38.484375 C 2.207031 -39.148438 2.316406 -39.820312 2.421875 -40.5 C 2.640625 -41.582031 3.0625 -42.425781 3.6875 -43.03125 C 4.320312 -43.644531 5.050781 -43.953125 5.875 -43.953125 C 6.707031 -43.953125 7.445312 -43.679688 8.09375 -43.140625 C 8.738281 -42.609375 9.1875 -41.820312 9.4375 -40.78125 C 9.90625 -38.757812 10.328125 -36.742188 10.703125 -34.734375 C 11.078125 -32.722656 11.484375 -30.707031 11.921875 -28.6875 C 11.992188 -28.226562 12.082031 -27.753906 12.1875 -27.265625 C 12.300781 -26.773438 12.425781 -26.28125 12.5625 -25.78125 C 12.957031 -25.851562 13.15625 -25.890625 13.15625 -25.890625 C 15.96875 -27.429688 18.441406 -27.867188 20.578125 -27.203125 C 22.710938 -26.546875 24.429688 -24.757812 25.734375 -21.84375 C 26.265625 -20.582031 26.703125 -19.273438 27.046875 -17.921875 C 27.390625 -16.578125 27.671875 -15.242188 27.890625 -13.921875 Z M 27.890625 -13.921875 "/></g></g></g><g fill="#ac0000" fill-opacity="1"><g transform="translate(55.06235, 49.350921)"><g><path d="M 23.25 -26.109375 C 24.613281 -24.703125 25.398438 -23.179688 25.609375 -21.546875 C 25.828125 -19.910156 25.503906 -18.398438 24.640625 -17.015625 C 23.785156 -15.628906 22.441406 -14.613281 20.609375 -13.96875 C 19.128906 -13.46875 17.585938 -13.117188 15.984375 -12.921875 C 14.390625 -12.722656 12.75 -12.460938 11.0625 -12.140625 C 11.5625 -11.992188 12.046875 -11.835938 12.515625 -11.671875 C 12.984375 -11.515625 13.453125 -11.398438 13.921875 -11.328125 C 14.847656 -11.148438 15.785156 -11.015625 16.734375 -10.921875 C 17.691406 -10.828125 18.625 -10.640625 19.53125 -10.359375 C 20.820312 -9.921875 21.601562 -9.191406 21.875 -8.171875 C 22.144531 -7.148438 21.789062 -6.148438 20.8125 -5.171875 C 20.3125 -4.640625 19.679688 -4.164062 18.921875 -3.75 C 18.171875 -3.332031 17.4375 -3.085938 16.71875 -3.015625 C 13.414062 -2.691406 10.628906 -3.113281 8.359375 -4.28125 C 6.097656 -5.457031 4.425781 -7.125 3.34375 -9.28125 C 2.257812 -11.4375 1.828125 -13.84375 2.046875 -16.5 C 2.191406 -18.15625 2.476562 -19.75 2.90625 -21.28125 C 3.34375 -22.8125 4.03125 -24.273438 4.96875 -25.671875 C 6.144531 -27.503906 7.671875 -28.828125 9.546875 -29.640625 C 11.421875 -30.453125 13.4375 -30.640625 15.59375 -30.203125 C 18.644531 -29.660156 21.195312 -28.296875 23.25 -26.109375 Z M 18.5 -20.921875 C 18.570312 -20.921875 18.648438 -20.945312 18.734375 -21 C 18.828125 -21.0625 18.945312 -21.128906 19.09375 -21.203125 C 18.40625 -22.171875 17.550781 -22.859375 16.53125 -23.265625 C 15.507812 -23.679688 14.546875 -23.765625 13.640625 -23.515625 C 12.816406 -23.265625 12.207031 -22.84375 11.8125 -22.25 C 11.414062 -21.65625 11.109375 -20.945312 10.890625 -20.125 C 12.222656 -20.257812 13.519531 -20.390625 14.78125 -20.515625 C 16.039062 -20.648438 17.28125 -20.785156 18.5 -20.921875 Z M 18.5 -20.921875 "/></g></g></g></g></g><g transform="matrix(1, 0, 0, 1, 71, 24)"><g clip-path="url(#d8d24b5f10)"><g fill="#ac0000" fill-opacity="1"><g transform="translate(3.918048, 78.574779)"><g><path d="M 48.109375 -47.484375 C 48.984375 -43.128906 48.71875 -39.035156 47.3125 -35.203125 C 45.90625 -31.378906 43.554688 -28.117188 40.265625 -25.421875 C 36.972656 -22.722656 32.957031 -20.898438 28.21875 -19.953125 C 27.164062 -19.703125 26.003906 -19.570312 24.734375 -19.5625 C 23.472656 -19.550781 22.207031 -19.550781 20.9375 -19.5625 C 20.300781 -19.59375 19.648438 -19.609375 18.984375 -19.609375 C 18.316406 -19.617188 17.671875 -19.613281 17.046875 -19.59375 L 16.171875 -19.5625 L 16.328125 -17.5 C 16.410156 -16.550781 16.5 -15.421875 16.59375 -14.109375 C 16.6875 -12.796875 16.75 -11.71875 16.78125 -10.875 L 16.796875 -10.15625 C 16.773438 -9.25 16.738281 -8.34375 16.6875 -7.4375 C 16.632812 -6.539062 16.460938 -5.71875 16.171875 -4.96875 C 15.585938 -3.363281 14.820312 -2.238281 13.875 -1.59375 C 12.925781 -0.957031 12.054688 -0.570312 11.265625 -0.4375 C 10.203125 -0.25 9.21875 -0.300781 8.3125 -0.59375 C 7.40625 -0.882812 6.734375 -1.253906 6.296875 -1.703125 L 6.0625 -1.875 C 5.195312 -2.363281 4.664062 -3.09375 4.46875 -4.0625 C 4.28125 -5.039062 4.191406 -6.164062 4.203125 -7.4375 C 4.222656 -8.226562 4.242188 -9.019531 4.265625 -9.8125 C 4.296875 -10.613281 4.328125 -11.4375 4.359375 -12.28125 C 4.421875 -13.8125 4.460938 -15.382812 4.484375 -17 C 4.515625 -18.613281 4.503906 -20.238281 4.453125 -21.875 C 4.359375 -24.675781 4.144531 -27.5 3.8125 -30.34375 C 3.476562 -33.1875 3.140625 -36.003906 2.796875 -38.796875 C 2.429688 -41.390625 2.101562 -44 1.8125 -46.625 C 1.519531 -49.25 1.304688 -51.882812 1.171875 -54.53125 C 1.148438 -55.21875 1.140625 -55.890625 1.140625 -56.546875 C 1.140625 -57.210938 1.1875 -57.867188 1.28125 -58.515625 C 1.632812 -60.640625 2.695312 -62.019531 4.46875 -62.65625 C 4.945312 -62.769531 5.421875 -62.832031 5.890625 -62.84375 C 7.210938 -62.894531 8.445312 -62.410156 9.59375 -61.390625 C 9.75 -61.296875 9.941406 -61.0625 10.171875 -60.6875 C 10.335938 -60.488281 10.476562 -60.3125 10.59375 -60.15625 L 11.15625 -59.453125 L 11.78125 -59.96875 C 15.382812 -62.664062 19.5625 -64.304688 24.3125 -64.890625 C 28.414062 -65.335938 32.113281 -64.925781 35.40625 -63.65625 C 38.707031 -62.382812 41.457031 -60.382812 43.65625 -57.65625 C 45.851562 -54.925781 47.335938 -51.535156 48.109375 -47.484375 Z M 30.921875 -37.109375 C 34.097656 -40.328125 34.9375 -43.8125 33.4375 -47.5625 C 32.75 -49.238281 31.679688 -50.367188 30.234375 -50.953125 C 29.054688 -51.390625 27.675781 -51.476562 26.09375 -51.21875 C 24.519531 -50.957031 23.046875 -50.421875 21.671875 -49.609375 C 20.296875 -48.796875 19.28125 -47.796875 18.625 -46.609375 C 16.425781 -42.796875 15.414062 -38.242188 15.59375 -32.953125 L 15.609375 -32.171875 L 16.390625 -32.09375 C 17.023438 -32.113281 17.609375 -32.132812 18.140625 -32.15625 C 23.640625 -32.332031 27.898438 -33.984375 30.921875 -37.109375 Z M 30.921875 -37.109375 "/></g></g></g><g fill="#ac0000" fill-opacity="1"><g transform="translate(56.850882, 76.853712)"><g><path d="M 38.46875 -14.671875 C 38.957031 -12.878906 38.984375 -11.328125 38.546875 -10.015625 C 38.117188 -8.703125 37.273438 -7.765625 36.015625 -7.203125 C 33.410156 -6.054688 31.046875 -7.144531 28.921875 -10.46875 C 28.867188 -10.519531 28.816406 -10.582031 28.765625 -10.65625 C 28.710938 -10.726562 28.628906 -10.816406 28.515625 -10.921875 C 27.535156 -10.203125 26.59375 -9.484375 25.6875 -8.765625 C 24.789062 -8.046875 23.875 -7.410156 22.9375 -6.859375 C 20.59375 -5.566406 18.242188 -4.929688 15.890625 -4.953125 C 13.546875 -4.984375 11.410156 -5.628906 9.484375 -6.890625 C 7.566406 -8.148438 6.046875 -9.976562 4.921875 -12.375 C 2.972656 -16.582031 2.050781 -20.816406 2.15625 -25.078125 C 2.257812 -29.347656 3.085938 -33.625 4.640625 -37.90625 C 4.984375 -38.8125 5.515625 -39.566406 6.234375 -40.171875 C 6.953125 -40.785156 7.875 -41.003906 9 -40.828125 C 10.207031 -40.660156 11.039062 -40.171875 11.5 -39.359375 C 11.957031 -38.554688 12.226562 -37.601562 12.3125 -36.5 C 12.46875 -34.96875 12.582031 -33.410156 12.65625 -31.828125 C 12.738281 -30.242188 12.882812 -28.660156 13.09375 -27.078125 C 13.28125 -25.859375 13.507812 -24.632812 13.78125 -23.40625 C 14.0625 -22.175781 14.40625 -20.957031 14.8125 -19.75 C 15.28125 -18.382812 15.898438 -17.648438 16.671875 -17.546875 C 17.441406 -17.441406 18.226562 -17.984375 19.03125 -19.171875 C 19.6875 -20.148438 20.25 -21.210938 20.71875 -22.359375 C 21.1875 -23.515625 21.5625 -24.648438 21.84375 -25.765625 C 22.40625 -27.953125 22.882812 -30.164062 23.28125 -32.40625 C 23.6875 -34.644531 24.125 -36.859375 24.59375 -39.046875 C 24.96875 -40.535156 25.695312 -41.679688 26.78125 -42.484375 C 27.863281 -43.285156 29.097656 -43.628906 30.484375 -43.515625 C 31.910156 -43.347656 33.078125 -42.773438 33.984375 -41.796875 C 34.890625 -40.828125 35.414062 -39.570312 35.5625 -38.03125 C 35.570312 -37.769531 35.582031 -37.503906 35.59375 -37.234375 C 35.601562 -36.972656 35.585938 -36.710938 35.546875 -36.453125 C 35.140625 -32.691406 35.285156 -29.007812 35.984375 -25.40625 C 36.679688 -21.800781 37.507812 -18.222656 38.46875 -14.671875 Z M 38.46875 -14.671875 "/></g></g></g><g fill="#ac0000" fill-opacity="1"><g transform="translate(99.006973, 75.483042)"><g><path d="M 29.4375 -23.953125 C 31.945312 -21.753906 33.453125 -19.382812 33.953125 -16.84375 C 34.460938 -14.300781 34.050781 -11.894531 32.71875 -9.625 C 31.394531 -7.363281 29.191406 -5.601562 26.109375 -4.34375 C 24.648438 -3.707031 23.109375 -3.191406 21.484375 -2.796875 C 19.859375 -2.398438 18.273438 -2.234375 16.734375 -2.296875 C 15.304688 -2.359375 13.859375 -2.640625 12.390625 -3.140625 C 10.929688 -3.640625 9.550781 -4.265625 8.25 -5.015625 C 6.738281 -5.929688 5.757812 -7.160156 5.3125 -8.703125 C 4.863281 -10.242188 4.90625 -11.6875 5.4375 -13.03125 C 5.976562 -14.3125 6.914062 -15.257812 8.25 -15.875 C 9.582031 -16.5 11.148438 -16.738281 12.953125 -16.59375 C 14.210938 -16.476562 15.46875 -16.390625 16.71875 -16.328125 C 17.96875 -16.265625 19.203125 -16.195312 20.421875 -16.125 C 20.460938 -16.289062 20.503906 -16.453125 20.546875 -16.609375 C 20.597656 -16.765625 20.648438 -16.945312 20.703125 -17.15625 C 19.742188 -17.445312 18.769531 -17.734375 17.78125 -18.015625 C 16.789062 -18.304688 15.835938 -18.644531 14.921875 -19.03125 C 13.316406 -19.769531 11.707031 -20.484375 10.09375 -21.171875 C 8.488281 -21.859375 7.035156 -22.742188 5.734375 -23.828125 C 3.609375 -25.492188 2.375 -27.507812 2.03125 -29.875 C 1.695312 -32.25 2.097656 -34.644531 3.234375 -37.0625 C 4.378906 -39.4375 6.085938 -41.425781 8.359375 -43.03125 C 10.628906 -44.632812 13.113281 -45.742188 15.8125 -46.359375 C 18.519531 -46.984375 21.128906 -46.929688 23.640625 -46.203125 C 25.554688 -45.691406 27.144531 -44.835938 28.40625 -43.640625 C 29.664062 -42.441406 30.429688 -40.863281 30.703125 -38.90625 C 30.835938 -38.125 30.769531 -37.28125 30.5 -36.375 C 30.238281 -35.46875 29.851562 -34.6875 29.34375 -34.03125 C 28.75 -33.21875 27.992188 -32.898438 27.078125 -33.078125 C 26.171875 -33.265625 25.289062 -33.554688 24.4375 -33.953125 C 22.5 -34.941406 20.78125 -35.28125 19.28125 -34.96875 C 17.78125 -34.664062 16.347656 -33.640625 14.984375 -31.890625 C 15.679688 -31.597656 16.320312 -31.328125 16.90625 -31.078125 C 17.5 -30.835938 18.0625 -30.570312 18.59375 -30.28125 C 20.4375 -29.269531 22.320312 -28.289062 24.25 -27.34375 C 26.1875 -26.40625 27.914062 -25.273438 29.4375 -23.953125 Z M 29.4375 -23.953125 "/></g></g></g><g fill="#ac0000" fill-opacity="1"><g transform="translate(136.646341, 74.25923)"><g><path d="M 26.765625 -38.15625 C 29.148438 -37.863281 31.234375 -37.066406 33.015625 -35.765625 C 34.804688 -34.472656 36.160156 -32.835938 37.078125 -30.859375 C 37.992188 -28.890625 38.300781 -26.710938 38 -24.328125 C 37.726562 -21.453125 37.0625 -18.769531 36 -16.28125 C 34.9375 -13.789062 33.414062 -11.507812 31.4375 -9.4375 C 28.15625 -6.039062 24.109375 -4.289062 19.296875 -4.1875 C 17.640625 -4.507812 15.976562 -4.789062 14.3125 -5.03125 C 12.644531 -5.269531 11.007812 -5.625 9.40625 -6.09375 C 6.257812 -7.101562 3.929688 -8.796875 2.421875 -11.171875 C 0.910156 -13.554688 0.335938 -16.394531 0.703125 -19.6875 C 1.160156 -23.570312 2.359375 -26.984375 4.296875 -29.921875 C 6.242188 -32.867188 8.847656 -35.40625 12.109375 -37.53125 C 14.898438 -39.3125 17.945312 -39.804688 21.25 -39.015625 C 22.15625 -38.773438 23.070312 -38.585938 24 -38.453125 C 24.9375 -38.328125 25.859375 -38.226562 26.765625 -38.15625 Z M 24.953125 -22.765625 C 25.523438 -24.691406 25.003906 -26.1875 23.390625 -27.25 C 21.878906 -28.257812 20.71875 -28.894531 19.90625 -29.15625 C 19.101562 -29.425781 18.394531 -29.269531 17.78125 -28.6875 C 17.164062 -28.113281 16.378906 -27.070312 15.421875 -25.5625 C 15.117188 -25.082031 14.863281 -24.675781 14.65625 -24.34375 C 13.226562 -21.601562 12.820312 -19.695312 13.4375 -18.625 C 14.050781 -17.5625 15.890625 -17.003906 18.953125 -16.953125 C 20.535156 -16.941406 21.75 -17.359375 22.59375 -18.203125 C 23.445312 -19.054688 24.234375 -20.578125 24.953125 -22.765625 Z M 24.953125 -22.765625 "/></g></g></g></g></g><g transform="matrix(1, 0, 0, 1, 238, 56)"><g clip-path="url(#e1860e4a6b)"><g fill="#ac0000" fill-opacity="1"><g transform="translate(1.403257, 39.622702)"><g><path d="M 20.25 -15.25 C 21.34375 -12.738281 21.648438 -10.125 21.171875 -7.40625 C 20.953125 -6.269531 20.488281 -5.226562 19.78125 -4.28125 C 19.070312 -3.332031 18.191406 -2.546875 17.140625 -1.921875 C 16.085938 -1.296875 14.945312 -0.867188 13.71875 -0.640625 C 12.488281 -0.410156 11.253906 -0.421875 10.015625 -0.671875 C 9.785156 -0.703125 9.550781 -0.742188 9.3125 -0.796875 C 9.070312 -0.847656 8.796875 -0.910156 8.484375 -0.984375 C 8.429688 0.191406 8.390625 1.332031 8.359375 2.4375 C 8.328125 3.539062 8.273438 4.625 8.203125 5.6875 C 8.179688 6.132812 8.132812 6.578125 8.0625 7.015625 C 7.988281 7.460938 7.882812 7.894531 7.75 8.3125 C 7.46875 9.070312 6.992188 9.640625 6.328125 10.015625 C 5.671875 10.398438 4.96875 10.546875 4.21875 10.453125 C 3.457031 10.335938 2.8125 10.007812 2.28125 9.46875 C 1.75 8.925781 1.414062 8.265625 1.28125 7.484375 C 1.28125 7.453125 1.269531 7.40625 1.25 7.34375 C 1.238281 7.289062 1.238281 7.238281 1.25 7.1875 C 1.5 5.101562 1.617188 3.003906 1.609375 0.890625 C 1.609375 -1.222656 1.675781 -3.320312 1.8125 -5.40625 C 1.957031 -7.5 2.359375 -9.582031 3.015625 -11.65625 C 3.335938 -12.675781 3.582031 -13.726562 3.75 -14.8125 C 3.925781 -15.894531 4.160156 -16.960938 4.453125 -18.015625 C 4.691406 -18.816406 5.09375 -19.273438 5.65625 -19.390625 C 6.21875 -19.515625 6.789062 -19.269531 7.375 -18.65625 C 7.4375 -18.59375 7.5 -18.523438 7.5625 -18.453125 C 7.632812 -18.378906 7.691406 -18.300781 7.734375 -18.21875 C 8.421875 -18.46875 9.097656 -18.71875 9.765625 -18.96875 C 10.429688 -19.21875 11.113281 -19.410156 11.8125 -19.546875 C 13.769531 -19.992188 15.457031 -19.84375 16.875 -19.09375 C 18.300781 -18.351562 19.425781 -17.070312 20.25 -15.25 Z M 11.03125 -7.890625 C 12.945312 -7.640625 14.238281 -7.929688 14.90625 -8.765625 C 15.570312 -9.597656 15.738281 -11.019531 15.40625 -13.03125 C 15.207031 -14.269531 14.457031 -14.734375 13.15625 -14.421875 C 12.25 -14.234375 11.503906 -13.863281 10.921875 -13.3125 C 10.335938 -12.757812 9.820312 -12.117188 9.375 -11.390625 C 8.570312 -10.078125 8.269531 -9.203125 8.46875 -8.765625 C 8.675781 -8.328125 9.53125 -8.035156 11.03125 -7.890625 Z M 11.03125 -7.890625 "/></g></g></g><g fill="#ac0000" fill-opacity="1"><g transform="translate(22.554083, 40.52088)"><g><path d="M 19.515625 -15.828125 C 19.609375 -15.429688 19.609375 -14.972656 19.515625 -14.453125 C 19.421875 -13.941406 19.242188 -13.550781 18.984375 -13.28125 C 18.742188 -13.019531 18.375 -12.847656 17.875 -12.765625 C 17.382812 -12.691406 16.929688 -12.679688 16.515625 -12.734375 C 16.109375 -12.765625 15.695312 -12.894531 15.28125 -13.125 C 14.863281 -13.351562 14.46875 -13.570312 14.09375 -13.78125 C 13.539062 -14.09375 13.050781 -14.191406 12.625 -14.078125 C 12.207031 -13.972656 11.90625 -13.660156 11.71875 -13.140625 C 10.9375 -11.242188 10.28125 -9.285156 9.75 -7.265625 C 9.613281 -6.828125 9.566406 -6.359375 9.609375 -5.859375 C 9.660156 -5.367188 9.648438 -4.894531 9.578125 -4.4375 C 9.453125 -3.394531 9.035156 -2.554688 8.328125 -1.921875 C 7.617188 -1.296875 6.785156 -0.976562 5.828125 -0.96875 C 4.847656 -0.945312 4.007812 -1.238281 3.3125 -1.84375 C 2.613281 -2.445312 2.160156 -3.257812 1.953125 -4.28125 C 1.898438 -4.53125 1.859375 -4.78125 1.828125 -5.03125 C 1.796875 -5.289062 1.785156 -5.5625 1.796875 -5.84375 C 1.929688 -8.320312 2.0625 -10.8125 2.1875 -13.3125 C 2.3125 -15.8125 2.4375 -18.300781 2.5625 -20.78125 C 2.570312 -21.03125 2.597656 -21.300781 2.640625 -21.59375 C 2.679688 -21.894531 2.789062 -22.128906 2.96875 -22.296875 C 3.257812 -22.609375 3.585938 -22.945312 3.953125 -23.3125 C 4.316406 -23.675781 4.679688 -23.863281 5.046875 -23.875 C 5.398438 -23.894531 5.789062 -23.757812 6.21875 -23.46875 C 6.644531 -23.1875 7.003906 -22.875 7.296875 -22.53125 C 7.535156 -22.238281 7.707031 -21.875 7.8125 -21.4375 C 7.914062 -21 8.046875 -20.550781 8.203125 -20.09375 C 10.929688 -21.425781 13.582031 -21.363281 16.15625 -19.90625 C 17 -19.457031 17.71875 -18.898438 18.3125 -18.234375 C 18.90625 -17.566406 19.304688 -16.765625 19.515625 -15.828125 Z M 19.515625 -15.828125 "/></g></g></g><g fill="#ac0000" fill-opacity="1"><g transform="translate(41.652636, 41.331907)"><g><path d="M 15.609375 -19.0625 C 16.867188 -18.8125 17.941406 -18.304688 18.828125 -17.546875 C 19.722656 -16.796875 20.367188 -15.878906 20.765625 -14.796875 C 21.171875 -13.722656 21.25 -12.5625 21 -11.3125 C 20.738281 -9.8125 20.28125 -8.425781 19.625 -7.15625 C 18.96875 -5.882812 18.070312 -4.738281 16.9375 -3.71875 C 15.070312 -2.070312 12.867188 -1.316406 10.328125 -1.453125 C 9.472656 -1.691406 8.609375 -1.90625 7.734375 -2.09375 C 6.867188 -2.28125 6.023438 -2.53125 5.203125 -2.84375 C 3.578125 -3.5 2.410156 -4.484375 1.703125 -5.796875 C 1.003906 -7.117188 0.820312 -8.632812 1.15625 -10.34375 C 1.550781 -12.375 2.316406 -14.128906 3.453125 -15.609375 C 4.597656 -17.085938 6.070312 -18.320312 7.875 -19.3125 C 9.414062 -20.132812 11.039062 -20.273438 12.75 -19.734375 C 13.21875 -19.566406 13.691406 -19.429688 14.171875 -19.328125 C 14.660156 -19.222656 15.140625 -19.132812 15.609375 -19.0625 Z M 14.0625 -11.015625 C 14.4375 -12.015625 14.21875 -12.820312 13.40625 -13.4375 C 12.644531 -14.03125 12.054688 -14.410156 11.640625 -14.578125 C 11.234375 -14.753906 10.851562 -14.703125 10.5 -14.421875 C 10.15625 -14.148438 9.703125 -13.632812 9.140625 -12.875 C 8.972656 -12.625 8.828125 -12.421875 8.703125 -12.265625 C 7.828125 -10.867188 7.53125 -9.878906 7.8125 -9.296875 C 8.101562 -8.710938 9.050781 -8.34375 10.65625 -8.1875 C 11.5 -8.125 12.160156 -8.296875 12.640625 -8.703125 C 13.117188 -9.117188 13.59375 -9.890625 14.0625 -11.015625 Z M 14.0625 -11.015625 "/></g></g></g><g fill="#ac0000" fill-opacity="1"><g transform="translate(61.84015, 42.189177)"><g><path d="M 11.203125 -13.953125 C 11.296875 -13.023438 11.398438 -11.742188 11.515625 -10.109375 C 11.628906 -8.472656 11.554688 -6.578125 11.296875 -4.421875 C 11.035156 -2.265625 10.429688 0.0703125 9.484375 2.59375 C 8.492188 4.5 7.164062 5.90625 5.5 6.8125 C 3.84375 7.726562 1.910156 8.125 -0.296875 8 C -0.773438 7.976562 -1.289062 7.890625 -1.84375 7.734375 C -2.695312 7.441406 -3.394531 6.984375 -3.9375 6.359375 C -4.488281 5.742188 -4.765625 5.097656 -4.765625 4.421875 C -4.765625 3.765625 -4.519531 3.132812 -4.03125 2.53125 C -3.550781 1.925781 -2.859375 1.546875 -1.953125 1.390625 C -0.203125 1.128906 1.144531 0.554688 2.09375 -0.328125 C 3.039062 -1.210938 3.726562 -2.285156 4.15625 -3.546875 C 4.582031 -4.804688 4.882812 -6.140625 5.0625 -7.546875 C 5.257812 -8.847656 5.347656 -10.171875 5.328125 -11.515625 C 5.316406 -12.859375 5.34375 -14.203125 5.40625 -15.546875 C 5.414062 -15.878906 5.421875 -16.207031 5.421875 -16.53125 C 5.421875 -16.851562 5.457031 -17.179688 5.53125 -17.515625 C 5.675781 -18.128906 5.929688 -18.632812 6.296875 -19.03125 C 6.660156 -19.4375 7.175781 -19.65625 7.84375 -19.6875 C 8.5 -19.738281 9.046875 -19.601562 9.484375 -19.28125 C 9.921875 -18.957031 10.226562 -18.484375 10.40625 -17.859375 C 10.789062 -16.578125 11.054688 -15.273438 11.203125 -13.953125 Z M 7.796875 -24.359375 C 7.015625 -24.390625 6.363281 -24.695312 5.84375 -25.28125 C 5.320312 -25.875 5.078125 -26.585938 5.109375 -27.421875 C 5.128906 -28.398438 5.503906 -29.257812 6.234375 -30 C 6.960938 -30.75 7.800781 -31.113281 8.75 -31.09375 C 9.570312 -31.050781 10.242188 -30.753906 10.765625 -30.203125 C 11.296875 -29.648438 11.546875 -28.957031 11.515625 -28.125 C 11.484375 -27.476562 11.285156 -26.851562 10.921875 -26.25 C 10.566406 -25.65625 10.109375 -25.179688 9.546875 -24.828125 C 8.992188 -24.484375 8.410156 -24.328125 7.796875 -24.359375 Z M 7.796875 -24.359375 "/></g></g></g><g fill="#ac0000" fill-opacity="1"><g transform="translate(73.23223, 42.672946)"><g><path d="M 18.90625 -19.515625 C 19.925781 -18.378906 20.492188 -17.171875 20.609375 -15.890625 C 20.722656 -14.609375 20.421875 -13.441406 19.703125 -12.390625 C 18.992188 -11.347656 17.910156 -10.609375 16.453125 -10.171875 C 15.296875 -9.816406 14.09375 -9.585938 12.84375 -9.484375 C 11.59375 -9.390625 10.304688 -9.25 8.984375 -9.0625 C 9.367188 -8.925781 9.738281 -8.785156 10.09375 -8.640625 C 10.445312 -8.503906 10.804688 -8.398438 11.171875 -8.328125 C 11.890625 -8.160156 12.617188 -8.03125 13.359375 -7.9375 C 14.097656 -7.84375 14.8125 -7.664062 15.5 -7.40625 C 16.488281 -7.03125 17.070312 -6.4375 17.25 -5.625 C 17.425781 -4.820312 17.125 -4.0625 16.34375 -3.34375 C 15.925781 -2.9375 15.414062 -2.582031 14.8125 -2.28125 C 14.21875 -1.988281 13.640625 -1.828125 13.078125 -1.796875 C 10.492188 -1.648438 8.34375 -2.066406 6.625 -3.046875 C 4.914062 -4.035156 3.675781 -5.378906 2.90625 -7.078125 C 2.132812 -8.785156 1.878906 -10.675781 2.140625 -12.75 C 2.304688 -14.019531 2.582031 -15.238281 2.96875 -16.40625 C 3.351562 -17.582031 3.929688 -18.707031 4.703125 -19.78125 C 5.679688 -21.164062 6.90625 -22.140625 8.375 -22.703125 C 9.851562 -23.273438 11.425781 -23.351562 13.09375 -22.9375 C 15.445312 -22.414062 17.382812 -21.273438 18.90625 -19.515625 Z M 15.046875 -15.640625 C 15.109375 -15.640625 15.171875 -15.65625 15.234375 -15.6875 C 15.304688 -15.726562 15.40625 -15.773438 15.53125 -15.828125 C 15.03125 -16.609375 14.382812 -17.175781 13.59375 -17.53125 C 12.8125 -17.882812 12.070312 -17.976562 11.375 -17.8125 C 10.71875 -17.644531 10.222656 -17.332031 9.890625 -16.875 C 9.566406 -16.425781 9.3125 -15.890625 9.125 -15.265625 C 10.15625 -15.328125 11.160156 -15.382812 12.140625 -15.4375 C 13.128906 -15.5 14.097656 -15.566406 15.046875 -15.640625 Z M 15.046875 -15.640625 "/></g></g></g><g fill="#ac0000" fill-opacity="1"><g transform="translate(93.377861, 43.528437)"><g><path d="M 12.734375 -7.4375 C 12.734375 -7.40625 12.734375 -7.390625 12.734375 -7.390625 C 13.578125 -7.410156 14.414062 -7.4375 15.25 -7.46875 C 16.09375 -7.507812 16.914062 -7.5 17.71875 -7.4375 C 18.03125 -7.425781 18.367188 -7.316406 18.734375 -7.109375 C 19.109375 -6.910156 19.320312 -6.703125 19.375 -6.484375 C 19.445312 -6.171875 19.414062 -5.804688 19.28125 -5.390625 C 19.144531 -4.984375 18.945312 -4.703125 18.6875 -4.546875 C 17.101562 -3.378906 15.4375 -2.523438 13.6875 -1.984375 C 11.945312 -1.441406 10.082031 -1.4375 8.09375 -1.96875 C 6.21875 -2.4375 4.722656 -3.421875 3.609375 -4.921875 C 2.503906 -6.429688 1.960938 -8.160156 1.984375 -10.109375 C 2.003906 -11.898438 2.363281 -13.597656 3.0625 -15.203125 C 3.757812 -16.816406 4.710938 -18.234375 5.921875 -19.453125 C 7.140625 -20.671875 8.539062 -21.582031 10.125 -22.1875 C 11.09375 -22.5625 12.054688 -22.734375 13.015625 -22.703125 C 13.984375 -22.679688 14.929688 -22.359375 15.859375 -21.734375 C 16.691406 -21.140625 17.328125 -20.328125 17.765625 -19.296875 C 18.203125 -18.273438 18.222656 -17.328125 17.828125 -16.453125 C 17.566406 -15.921875 17.332031 -15.648438 17.125 -15.640625 C 16.914062 -15.640625 16.695312 -15.59375 16.46875 -15.5 C 16.125 -15.3125 15.816406 -15.300781 15.546875 -15.46875 C 15.273438 -15.632812 15.070312 -15.832031 14.9375 -16.0625 C 14.394531 -16.90625 13.890625 -17.441406 13.421875 -17.671875 C 12.953125 -17.898438 12.316406 -17.722656 11.515625 -17.140625 C 10.347656 -16.316406 9.5 -15.320312 8.96875 -14.15625 C 8.4375 -12.988281 8.128906 -11.734375 8.046875 -10.390625 C 8.015625 -9.628906 8.191406 -9 8.578125 -8.5 C 8.972656 -8.007812 9.5625 -7.691406 10.34375 -7.546875 C 10.726562 -7.460938 11.125 -7.425781 11.53125 -7.4375 C 11.945312 -7.457031 12.347656 -7.457031 12.734375 -7.4375 Z M 12.734375 -7.4375 "/></g></g></g><g fill="#ac0000" fill-opacity="1"><g transform="translate(112.727718, 44.350136)"><g><path d="M 17.8125 -6.546875 C 18.007812 -5.898438 18 -5.3125 17.78125 -4.78125 C 17.5625 -4.257812 17.207031 -3.785156 16.71875 -3.359375 C 15.988281 -2.753906 15.085938 -2.363281 14.015625 -2.1875 C 12.953125 -2.007812 11.863281 -2.03125 10.75 -2.25 C 9.632812 -2.476562 8.691406 -2.929688 7.921875 -3.609375 C 6.035156 -5.171875 5.015625 -7.1875 4.859375 -9.65625 C 4.785156 -10.488281 4.75 -11.335938 4.75 -12.203125 C 4.757812 -13.078125 4.773438 -13.9375 4.796875 -14.78125 C 4.804688 -15.195312 4.75 -15.539062 4.625 -15.8125 C 4.507812 -16.082031 4.265625 -16.289062 3.890625 -16.4375 C 3.335938 -16.695312 2.910156 -17.039062 2.609375 -17.46875 C 2.304688 -17.894531 2.253906 -18.390625 2.453125 -18.953125 C 2.597656 -19.359375 2.851562 -19.753906 3.21875 -20.140625 C 3.59375 -20.535156 3.976562 -20.800781 4.375 -20.9375 C 4.882812 -21.132812 5.273438 -21.363281 5.546875 -21.625 C 5.828125 -21.894531 6 -22.304688 6.0625 -22.859375 C 6.101562 -23.367188 6.179688 -23.863281 6.296875 -24.34375 C 6.421875 -24.832031 6.535156 -25.320312 6.640625 -25.8125 C 7.023438 -27.5 7.800781 -28.304688 8.96875 -28.234375 C 10.164062 -28.148438 10.851562 -27.25 11.03125 -25.53125 C 11.082031 -24.957031 11.101562 -24.367188 11.09375 -23.765625 C 11.082031 -23.171875 11.066406 -22.578125 11.046875 -21.984375 C 11.015625 -21.203125 11.390625 -20.78125 12.171875 -20.71875 C 12.660156 -20.664062 13.15625 -20.609375 13.65625 -20.546875 C 14.164062 -20.484375 14.65625 -20.382812 15.125 -20.25 C 15.894531 -20.019531 16.476562 -19.597656 16.875 -18.984375 C 17.269531 -18.367188 17.421875 -17.710938 17.328125 -17.015625 C 17.242188 -16.285156 16.925781 -15.671875 16.375 -15.171875 C 15.820312 -14.679688 15.15625 -14.429688 14.375 -14.421875 C 13.8125 -14.378906 13.226562 -14.378906 12.625 -14.421875 C 12.03125 -14.460938 11.34375 -14.5 10.5625 -14.53125 C 10.632812 -13.6875 10.691406 -12.835938 10.734375 -11.984375 C 10.785156 -11.128906 10.863281 -10.273438 10.96875 -9.421875 C 11.0625 -8.921875 11.289062 -8.550781 11.65625 -8.3125 C 12.019531 -8.082031 12.457031 -7.976562 12.96875 -8 C 13.300781 -8.039062 13.628906 -8.085938 13.953125 -8.140625 C 14.273438 -8.203125 14.609375 -8.238281 14.953125 -8.25 C 15.585938 -8.28125 16.160156 -8.171875 16.671875 -7.921875 C 17.179688 -7.671875 17.5625 -7.210938 17.8125 -6.546875 Z M 17.8125 -6.546875 "/></g></g></g></g></g></svg>